<svg width="26" height="26" viewBox="0 0 26 26" fill="none" xmlns="http://www.w3.org/2000/svg">
<g clip-path="url(#clip0_3_97)">
<path d="M0.00518799 24.1696C0.088388 24.2424 0.072788 24.3516 0.103988 24.4452C0.395188 25.2668 0.951588 25.7868 1.81999 25.948C1.84079 25.9532 1.84599 25.9636 1.84599 25.974C1.84079 25.9844 1.83559 25.9896 1.83039 25.9896C1.26359 25.9896 0.696788 25.9844 0.135188 25.9948C0.025988 25.9948 0.00518799 25.974 0.00518799 25.8648C0.010388 25.3032 0.00518799 24.7364 0.00518799 24.1696Z" fill="#FEFEFE"/>
<path d="M1.8304 25.9948C1.8408 25.9792 1.8356 25.9636 1.8252 25.948C1.9188 25.9324 2.0072 25.922 2.0852 25.9948C1.9968 25.9948 1.9136 25.9948 1.8304 25.9948Z" fill="black"/>
<path d="M2.33478 25.9948C2.41278 25.922 2.50118 25.9324 2.59478 25.948C2.57918 25.9636 2.57918 25.9792 2.58958 25.9948C2.50118 25.9948 2.41798 25.9948 2.33478 25.9948Z" fill="black"/>
<path d="M25.6932 7.96121C24.4556 2.40241 18.7928 -1.05559 13.2756 0.374414C6.62999 2.10081 3.57759 9.84361 7.26439 15.6156C7.37359 15.782 7.34239 15.86 7.21239 15.9848C5.23119 17.8672 3.25519 19.76 1.26879 21.6372C0.727988 22.152 0.181988 22.646 0.00518799 23.4104C0.00518799 23.6652 0.00518799 23.9148 0.00518799 24.1696C0.057188 24.2528 0.036388 24.3516 0.051988 24.44C0.161188 25.116 1.06079 26.0156 1.82519 25.9688C1.90839 25.9792 2.00199 25.9428 2.07999 25.9948C2.16319 25.9948 2.24639 25.9948 2.33479 25.9948C2.41279 25.9324 2.51679 26 2.59479 25.948C3.11999 25.8752 3.53079 25.5996 3.88959 25.22C5.93319 23.0724 7.97679 20.93 10.0152 18.7772C10.14 18.6472 10.2232 18.6264 10.3844 18.7304C12.6984 20.1812 15.2048 20.6492 17.8724 20.098C23.4104 18.9696 26.9256 13.4888 25.6932 7.96121ZM7.31639 20.1604C5.89679 21.6424 4.48759 23.1296 3.07319 24.6116C2.83919 24.856 2.55319 24.9756 2.29319 24.9808C1.72119 24.9808 1.28959 24.6948 1.10759 24.2372C0.920388 23.7692 1.01919 23.2804 1.39879 22.9164C2.24639 22.1052 3.09919 21.2992 3.94679 20.4932C4.57079 19.9004 5.19479 19.3076 5.81359 18.7096C5.92279 18.6056 5.98519 18.5692 6.10999 18.6992C6.49999 19.11 6.90039 19.5052 7.30599 19.9004C7.40479 19.9992 7.41519 20.0564 7.31639 20.1604ZM9.25599 18.1168C8.91279 18.4756 8.56439 18.8344 8.22639 19.2036C8.14839 19.2868 8.10679 19.2816 8.02879 19.2088C7.61799 18.7928 7.20719 18.382 6.79119 17.9712C6.71839 17.8984 6.70799 17.8516 6.79119 17.7736C7.16039 17.4304 7.52959 17.0768 7.89359 16.7284C7.95599 16.666 8.00279 16.64 8.07559 16.7232C8.43959 17.16 8.83999 17.5552 9.27159 17.9244C9.29759 17.9452 9.31839 17.9712 9.34959 18.0076C9.31839 18.044 9.29239 18.0856 9.25599 18.1168ZM15.7872 19.3076C10.764 19.2868 6.68199 15.1944 6.69239 10.1764C6.70279 5.14281 10.8108 1.05041 15.834 1.07121C20.8624 1.09201 24.934 5.18441 24.9288 10.2024C24.9236 15.2308 20.8104 19.3284 15.7872 19.3076Z" fill="black"/>
<path d="M18.6524 11.5076C18.252 10.9044 17.7528 10.3896 17.186 9.94762C16.3124 9.27162 15.3088 9.27682 14.4352 9.94762C13.8736 10.3844 13.3796 10.8992 12.9792 11.4868C12.1316 12.7348 12.4072 14.2012 13.6396 15.0228C14.2844 15.4544 15.0072 15.626 15.6728 15.626C16.3592 15.6312 16.9312 15.5376 17.472 15.3036C19.084 14.6016 19.604 12.9324 18.6524 11.5076ZM17.3264 14.2324C16.8584 14.508 16.3436 14.6172 15.8028 14.6172C15.1996 14.612 14.6328 14.482 14.1336 14.1284C13.494 13.6708 13.312 12.9168 13.7124 12.2356C14.0816 11.6012 14.5964 11.0864 15.1892 10.6652C15.6104 10.3688 16.0732 10.3896 16.484 10.7016C17.0196 11.102 17.4928 11.5752 17.8516 12.142C18.3456 12.922 18.1272 13.7592 17.3264 14.2324Z" fill="black"/>
<path d="M21.2316 7.94561C21.0548 6.73921 19.8224 6.21921 18.8812 6.95761C18.1584 7.52441 17.8672 8.68921 18.2416 9.52641C18.6264 10.3896 19.604 10.6704 20.3736 10.114C20.9872 9.67201 21.2316 9.03241 21.2628 8.29401C21.2524 8.18481 21.2472 8.06521 21.2316 7.94561ZM19.9056 9.17801C19.7756 9.31841 19.6144 9.42761 19.4168 9.36521C19.2296 9.30801 19.162 9.13121 19.1152 8.95961C19.0944 8.88161 19.0944 8.79321 19.0892 8.73601C19.0944 8.36161 19.1984 8.04441 19.4584 7.80001C19.7652 7.50881 20.098 7.59721 20.1968 8.00801C20.306 8.44481 20.2124 8.84521 19.9056 9.17801Z" fill="black"/>
<path d="M12.6672 6.91082C11.8976 6.34922 10.9304 6.61442 10.5352 7.48282C10.1296 8.37202 10.4728 9.59402 11.284 10.14C11.986 10.6132 12.844 10.4312 13.2808 9.71882C13.468 9.41722 13.546 9.08442 13.546 8.73082C13.5252 7.99242 13.2756 7.35802 12.6672 6.91082ZM12.1992 9.37562C11.9964 9.43282 11.726 9.27162 11.5596 8.97522C11.3724 8.63722 11.31 8.27842 11.4556 7.90922C11.5752 7.60762 11.8248 7.54522 12.0848 7.74282C12.402 7.98722 12.5164 8.33042 12.5268 8.63722C12.5268 9.04802 12.3916 9.31842 12.1992 9.37562Z" fill="black"/>
<path d="M16.874 5.25721C16.2864 4.58641 15.3712 4.57601 14.768 5.23641C14.066 6.01121 14.0764 7.34761 14.794 8.10681C15.3816 8.73081 16.2656 8.72561 16.848 8.09121C17.2172 7.68561 17.3628 7.19161 17.3836 6.66121C17.3576 6.13081 17.2224 5.65241 16.874 5.25721ZM16.0784 7.42561C15.9016 7.60241 15.73 7.60241 15.548 7.43601C15.1736 7.08241 15.1684 6.25041 15.5376 5.89161C15.7196 5.72001 15.912 5.72001 16.0888 5.90201C16.2448 6.06321 16.3592 6.38561 16.3592 6.70281C16.3436 6.94721 16.2864 7.21761 16.0784 7.42561Z" fill="black"/>
</g>
<defs>
<clipPath id="clip0_3_97">
<rect width="26" height="26" fill="white"/>
</clipPath>
</defs>
</svg>